<svg width="27" height="27" viewBox="0 0 27 27" fill="none" xmlns="http://www.w3.org/2000/svg">
<g clip-path="url(#clip0)">
<path d="M8.75391 17.4553H23.0451C23.399 17.4553 23.7095 17.2213 23.8052 16.8814L26.9695 5.80696C27.0375 5.56821 26.9909 5.31175 26.8412 5.11338C26.6912 4.91563 26.458 4.79883 26.2092 4.79883H6.92777L6.36232 2.25439C6.28198 1.89205 5.96063 1.63477 5.58984 1.63477H0.791016C0.353897 1.63477 0 1.98866 0 2.42578C0 2.86311 0.353897 3.2168 0.791016 3.2168H4.95497L7.81149 16.0708C6.97103 16.4362 6.38086 17.2728 6.38086 18.2463C6.38086 19.5548 7.44543 20.6193 8.75391 20.6193H23.0451C23.4825 20.6193 23.8361 20.2657 23.8361 19.8283C23.8361 19.3912 23.4825 19.0373 23.0451 19.0373H8.75391C8.31823 19.0373 7.96289 18.6828 7.96289 18.2463C7.96289 17.8098 8.31823 17.4553 8.75391 17.4553Z" fill="#057FC7"/>
<path d="M7.96289 22.9924C7.96289 24.3011 9.02747 25.3654 10.3361 25.3654C11.6446 25.3654 12.7092 24.3011 12.7092 22.9924C12.7092 21.6839 11.6446 20.6194 10.3361 20.6194C9.02747 20.6194 7.96289 21.6839 7.96289 22.9924Z" fill="#057FC7"/>
<path d="M19.09 22.9924C19.09 24.3011 20.1546 25.3654 21.4631 25.3654C22.7718 25.3654 23.8361 24.3011 23.8361 22.9924C23.8361 21.6839 22.7718 20.6194 21.4631 20.6194C20.1546 20.6194 19.09 21.6839 19.09 22.9924Z" fill="#057FC7"/>
</g>
<defs>
<clipPath id="clip0">
<rect width="27" height="27" fill="white"/>
</clipPath>
</defs>
</svg>
