<svg width="52" height="64" viewBox="0 0 52 64" fill="none" xmlns="http://www.w3.org/2000/svg">
<path fill-rule="evenodd" clip-rule="evenodd" d="M0.912659 23.5746V25.4947C1.21187 26.0088 1.27035 26.944 2.16549 27.7982L6.70679 32.1448C6.96893 32.395 7.35581 32.8127 7.62354 32.9968C7.82632 32.8198 8.26938 32.0481 8.45975 31.7686C8.73269 31.3678 9.00619 30.9544 9.25604 30.5532L15.6687 20.7493C16.6134 19.3779 17.9586 17.1195 18.8692 15.9021C19.4489 15.1272 20.1451 14.546 21.014 13.9978C24.7933 11.6131 30.1091 12.6366 32.2421 16.5711C33.3108 18.5425 33.4467 20.9361 32.5816 23.125C32.1514 24.2133 30.2463 26.8978 29.4916 28.0758C29.0738 28.7279 28.3476 30.0258 27.7244 30.4025C26.3744 31.2183 23.9627 30.1138 24.9846 28.0248C25.4832 27.0057 28.1575 23.3024 28.948 21.8709C30.0693 19.8402 29.0253 17.5366 27.1145 16.6747C26.1141 16.2235 24.725 16.1893 23.6942 16.6145C22.757 17.001 22.1389 17.8255 21.6251 18.6528C20.1735 20.9905 10.5904 35.4001 10.4551 35.6999C10.652 35.959 11.0839 36.3229 11.348 36.575C13.2075 38.35 22.1621 47.0153 22.9597 47.5819C23.2463 47.7854 23.6807 48.0225 24.0955 48.1741C24.5228 48.3302 25.1842 48.3933 25.4865 48.5116H26.4506C27.0063 48.2942 27.4761 48.4696 28.7182 47.7526C29.4758 47.3152 32.6628 44.1407 33.4079 43.4296L48.7741 28.7623C49.6086 27.9657 50.3396 27.3886 50.7671 26.2338C50.8917 25.897 50.9601 25.3181 51.0874 25.0429V23.9802C50.9149 23.6247 50.8638 23.0231 50.6792 22.6193C50.1152 21.3853 49.1519 20.6676 48.1156 19.6784L44.3766 16.1256C44.0682 16.4386 43.8012 16.929 43.5575 17.3165C43.3028 17.7216 43.0399 18.122 42.7617 18.5326L37.9626 25.8653C36.9035 27.5199 35.8178 29.0939 34.7821 30.7325C33.6981 32.4477 32.8378 33.9955 31.0106 35.0953C26.9234 37.5556 22.0948 36.4851 19.7903 32.5874C18.734 30.8008 18.5778 28.1082 19.3983 26.045C19.8399 24.9346 21.7415 22.2079 22.4993 21.0433C22.7858 20.6031 23.0102 20.2736 23.2985 19.8315C23.5986 19.3714 23.7979 19.0213 24.2188 18.7344C25.2417 18.0371 26.5477 18.5774 27.0321 19.3303C27.7007 20.3691 26.8076 21.479 26.3287 22.1839C25.7751 22.9988 25.2673 23.8203 24.7116 24.6508C24.451 25.0402 24.1948 25.4714 23.9245 25.8775C23.003 27.262 22.1071 28.4338 22.8377 30.2163C23.2631 31.2543 23.8297 31.9132 24.7347 32.3594C25.7248 32.8476 27.1754 32.9655 28.2424 32.5146C29.2941 32.0702 29.7431 31.4105 30.3222 30.5456C33.5428 25.7349 36.7032 20.6596 39.921 15.8813C40.1908 15.4806 40.4623 15.0719 40.7183 14.6675C40.9867 14.2434 41.3099 13.8103 41.5379 13.4292C41.3011 13.0828 40.2258 12.1477 39.8365 11.7761C39.2358 11.2028 38.6811 10.6732 38.0804 10.0998C35.2197 7.36927 32.2058 4.42484 29.3263 1.75334C28.5002 0.986904 27.3846 0.836425 26.9748 0.617554H24.9625C24.6479 0.785575 24.1872 0.841937 23.8354 1.00439C22.6333 1.55954 22.2863 2.05358 21.3518 2.94567L6.33047 17.2837C5.62806 17.9542 2.32381 21.0251 1.85107 21.6287C1.12028 22.5619 1.15934 23.152 0.912659 23.5746Z" fill="#064F7A"/>
<path fill-rule="evenodd" clip-rule="evenodd" d="M4.76149 63.3824C3.54485 63.3824 2.59918 63.066 1.92458 62.4333C1.24999 61.8005 0.912659 60.9034 0.912659 59.7421V55.4094H3.22895V59.6751C3.22895 60.9257 3.74758 61.551 4.78489 61.551C5.81433 61.551 6.32904 60.9257 6.32904 59.6751V55.4094H8.61031V59.7421C8.61031 60.9034 8.27292 61.8005 7.59839 62.4333C6.92373 63.066 5.97812 63.3824 4.76149 63.3824ZM17.9691 55.4094V63.2261H16.0622L12.4473 59.0609V63.2261H10.1779V55.4094H12.0847L15.6996 59.5745V55.4094H17.9691ZM19.6068 55.4094H21.9232V63.2261H19.6068V55.4094ZM26.7312 60.3897L25.8655 61.2719V63.2261H23.5726V55.4094H25.8655V58.6589L29.0358 55.4094H31.5861L28.2403 58.8711L31.7615 63.2261H29.071L26.7312 60.3897ZM36.1485 63.3824C34.9318 63.3824 33.9862 63.066 33.3116 62.4333C32.637 61.8005 32.2997 60.9034 32.2997 59.7421V55.4094H34.6159V59.6751C34.6159 60.9257 35.1346 61.551 36.1719 61.551C37.2013 61.551 37.716 60.9257 37.716 59.6751V55.4094H39.9973V59.7421C39.9973 60.9034 39.6599 61.8005 38.9854 62.4333C38.3107 63.066 37.3651 63.3824 36.1485 63.3824ZM48.9583 63.2261L48.9349 59.0832L46.8292 62.4555H45.7997L43.7057 59.1949V63.2261H41.5649V55.4094H43.4717L46.3495 59.9207L49.1572 55.4094H51.064L51.0874 63.2261H48.9583Z" fill="#064F7A"/>
</svg>
