<svg width="27" height="27" viewBox="0 0 27 27" fill="none" xmlns="http://www.w3.org/2000/svg"><g clip-path="url(#clip0)" fill="#057FC7"><path d="M8.754 17.455h14.291a.788.788 0 00.76-.574L26.97 5.807a.79.79 0 00-.76-1.008H6.927l-.566-2.545a.791.791 0 00-.772-.62H.79a.79.79 0 100 1.583h4.164L7.811 16.07a2.375 2.375 0 00-1.43 2.175 2.376 2.376 0 002.373 2.373h14.291a.79.79 0 100-1.582H8.754a.792.792 0 010-1.582zm-.791 5.537a2.376 2.376 0 002.373 2.373 2.376 2.376 0 002.373-2.373 2.376 2.376 0 00-2.373-2.373 2.376 2.376 0 00-2.373 2.373zm11.127 0a2.376 2.376 0 002.373 2.373 2.375 2.375 0 002.373-2.373 2.376 2.376 0 00-2.373-2.373 2.376 2.376 0 00-2.373 2.373z"/></g><defs><clipPath id="clip0"><path fill="#fff" d="M0 0h27v27H0z"/></clipPath></defs></svg>