<svg width="52" height="64" viewBox="0 0 52 64" fill="none" xmlns="http://www.w3.org/2000/svg"><path fill-rule="evenodd" clip-rule="evenodd" d="M.913 23.575v1.92c.299.514.357 1.449 1.252 2.303l4.542 4.347c.262.25.649.668.917.852.202-.177.645-.949.836-1.228.273-.401.546-.815.796-1.216l6.413-9.804c.944-1.371 2.29-3.63 3.2-4.847.58-.775 1.276-1.356 2.145-1.904 3.78-2.385 9.095-1.361 11.228 2.573 1.069 1.971 1.205 4.365.34 6.554-.43 1.088-2.336 3.773-3.09 4.95-.418.653-1.144 1.95-1.768 2.328-1.35.815-3.761-.29-2.74-2.378.5-1.02 3.173-4.723 3.964-6.154 1.121-2.03.077-4.334-1.834-5.196-1-.451-2.389-.486-3.42-.06-.937.386-1.555 1.21-2.069 2.038C20.174 20.99 10.59 35.4 10.455 35.7c.197.259.629.623.893.875 1.86 1.775 10.814 10.44 11.612 11.007a5.2 5.2 0 001.136.592c.427.156 1.088.22 1.39.338h.965c.555-.218 1.025-.042 2.267-.76.758-.437 3.945-3.611 4.69-4.322l15.366-14.668c.835-.796 1.566-1.373 1.993-2.528.125-.337.193-.916.32-1.191V23.98c-.172-.355-.223-.957-.408-1.36-.564-1.235-1.527-1.952-2.563-2.942l-3.74-3.552c-.308.313-.575.803-.819 1.19a42.28 42.28 0 01-.795 1.217l-4.8 7.332c-1.059 1.655-2.144 3.229-3.18 4.868-1.084 1.715-1.944 3.262-3.771 4.362-4.088 2.46-8.916 1.39-11.22-2.508-1.057-1.786-1.213-4.479-.393-6.542.442-1.11 2.343-3.837 3.101-5.002.287-.44.511-.77.8-1.212.3-.46.499-.81.92-1.097 1.023-.697 2.329-.157 2.813.596.669 1.04-.224 2.149-.703 2.854-.554.815-1.062 1.636-1.617 2.467-.261.39-.517.82-.788 1.227-.921 1.384-1.817 2.556-1.086 4.338.425 1.038.992 1.697 1.897 2.143.99.489 2.44.606 3.507.156 1.052-.445 1.501-1.105 2.08-1.97 3.22-4.81 6.381-9.885 9.599-14.664.27-.4.541-.81.797-1.213.269-.425.592-.858.82-1.239-.237-.346-1.312-1.281-1.701-1.653L38.08 10.1c-2.86-2.73-5.874-5.675-8.754-8.347C28.5.987 27.385.836 26.975.618h-2.013c-.314.168-.775.224-1.127.386-1.202.556-1.549 1.05-2.483 1.942L6.33 17.284c-.702.67-4.006 3.741-4.479 4.345-.73.933-.692 1.523-.938 1.946zm3.848 39.807c-1.216 0-2.162-.316-2.836-.949-.675-.633-1.012-1.53-1.012-2.69v-4.334h2.316v4.266c0 1.25.519 1.876 1.556 1.876 1.03 0 1.544-.625 1.544-1.876V55.41H8.61v4.333c0 1.161-.337 2.059-1.012 2.691-.674.633-1.62.95-2.837.95zM17.97 55.41v7.817h-1.907l-3.615-4.165v4.165h-2.27V55.41h1.908l3.615 4.166V55.41h2.27zm1.638 0h2.316v7.817h-2.316V55.41zm7.124 4.98l-.866.883v1.954h-2.292V55.41h2.293v3.25l3.17-3.25h2.55l-3.346 3.462 3.522 4.355H29.07l-2.34-2.836zm9.417 2.993c-1.216 0-2.162-.316-2.836-.949-.675-.633-1.012-1.53-1.012-2.69V55.41h2.316v4.266c0 1.25.519 1.876 1.556 1.876 1.03 0 1.544-.625 1.544-1.876V55.41h2.281v4.333c0 1.161-.337 2.059-1.012 2.691-.674.633-1.62.95-2.837.95zm12.81-.156l-.023-4.143-2.106 3.373H45.8l-2.093-3.261v4.031h-2.141V55.41h1.907l2.877 4.512 2.808-4.512h1.907l.023 7.817h-2.129z" fill="#064F7A"/></svg>